# xmcd
#
# Track frame offsets:
#	150
#	12830
#	25935
#	39865
#	57552
#	69345
#	88540
#	99980
#	115925
#	130490
#	142972
#	158665
#	175897
#	192802
#	207762
#	225400
#	239057
#	253635
#	269225
#	284400
#	301490
#	314107
#
# Disc length: 4342 seconds
# Revision: 1
# Processed by: cddbd v1.5.2PL0 Copyright (c) Steve Scherf et al.
# Submitted via: dBpowerAMP V12.0
#
DISCID=3b10f416
DTITLE=Various Artist - Mirrors Of Life, Vol. 3
DYEAR=2000
DGENRE=Country
TTITLE0=Garth Brooks - She's Gonna Make It
TTITLE1=Clay Walker - I Won't Have The Heart
TTITLE2=Doug Stone - Little Sister's Blue Jeans
TTITLE3=Pearl River - Good Way To Get Hurt
TTITLE4=Aaron Tippin - Trim Yourself To Fit The World
TTITLE5=Joe Diffie - Twice Upon A Time
TTITLE6=Perfect Stranger - One More Repossession
TTITLE7=Kenny Chesney - Angel Loved The Devil
TTITLE8=Chris Ward - Back To Earth
TTITLE9=Doug Stong - Wishbone
TTITLE10=Jeff Silvey - One Perfect Son
TTITLE11=Wesley Dennis - Don't Make Me Feel At Home
TTITLE12=Lesley McDaniel - I Was Over You Last Night
TTITLE13=B. B. Watson - Lover Not A Fighter
TTITLE14=Rebecca Lynn Howard - Jesus, Daddy, And You
TTITLE15=Doug Stone - Right To Remain Silent
TTITLE16=Garth Brooks - The Night I Called The Old Man Out
TTITLE17=Doug Stone - I Do All My Crying (On The Inside)
TTITLE18=Ricky Lynn Gregg - Get A Little Closer
TTITLE19=Bryan Austin - That's What She Said
TTITLE20=Keith Gattis - Heartache Hero
TTITLE21=Continental Divide - Wing And A Preyer
EXTD=
EXTT0=
EXTT1=
EXTT2=
EXTT3=
EXTT4=
EXTT5=
EXTT6=
EXTT7=
EXTT8=
EXTT9=
EXTT10=
EXTT11=
EXTT12=
EXTT13=
EXTT14=
EXTT15=
EXTT16=
EXTT17=
EXTT18=
EXTT19=
EXTT20=
EXTT21=
PLAYORDER=
